# xmcd CD database file
#
# Track frame offsets:
#	154
#	1856
#	16508
#	38554
#	76092
#	91238
#	111527
#	124730
#	141177
#	165250
#	182043
#	196957
#	210502
#	220811
#	236914
#	253662
#	274738
#	287373
#
# Disc length: 3994 seconds
#
# Revision: 0
# Processed by: cddbd v1.5.2PL0 Copyright (c) Steve Scherf et al.
# Submitted via: CDex 1.51
#
DISCID=e80f9812
DTITLE=Paulo Meyer - Paulo Meyer and The Burning Bush
DYEAR=2004
DGENRE=Blues
TTITLE0=That's What The Blues is All About
TTITLE1=Café Paraty
TTITLE2=Termo Azul
TTITLE3=Blues da Ilha do Catimbau
TTITLE4=Another Mule (Has Been Kicking in My Stall)
TTITLE5=(Sitting On) The Dock of The Bay
TTITLE6=I'm Ready
TTITLE7=You Get Me High
TTITLE8=Traveling Blues
TTITLE9=Ain't no Sunshine
TTITLE10=California Dreaming
TTITLE11=Light My Fire
TTITLE12=Honky Tonk Women
TTITLE13=Blue Suede Shoes
TTITLE14=Before You Accuse Me
TTITLE15=Blowing in The Wind
TTITLE16=Before You Accuse Me
TTITLE17=Paraty Cunha
EXTD=YEAR: 2004
EXTT0=
EXTT1=
EXTT2=
EXTT3=
EXTT4=
EXTT5=
EXTT6=
EXTT7=
EXTT8=
EXTT9=
EXTT10=
EXTT11=
EXTT12=
EXTT13=
EXTT14=
EXTT15=
EXTT16=
EXTT17=
PLAYORDER=
